<?xml version="1.0" encoding="utf-8"?>
<!-- Generator: Adobe Illustrator 27.5.0, SVG Export Plug-In . SVG Version: 6.00 Build 0)  -->
<svg version="1.1" xmlns="http://www.w3.org/2000/svg" xmlns:xlink="http://www.w3.org/1999/xlink" x="0px" y="0px"
	 viewBox="0 0 800 1200" style="enable-background:new 0 0 800 1200;" xml:space="preserve">
<g id="background">
	<g>
		<g>
			<rect style="fill:#E0D1C6;" width="800" height="1200"/>
		</g>
	</g>
</g>
<g id="object">
	<g>
		<path style="fill:#CE9376;" d="M538.983,969.591c1.816-0.911,3.273-3.274,4.53-4.646c1.642-1.792,4.795-11.884,3.295-13.973
			c-0.584-0.814-1.439-1.43-2.396-1.727c-2.114-0.656-4.472,0.308-6.022,1.888c-2.696,2.747-5.809,10.156-5.226,14.117
			c0.279,1.897,1.883,4.494,4.062,4.701C537.847,970.011,538.432,969.868,538.983,969.591z"/>
		<g>
			<g>
				<path style="fill:#FFFFFF;" d="M728.344,775.783c-16.691-0.26-36.999,9.973-41.052,24.473
					c-5.917-13.844-31.962-20.89-48.476-18.446c-43.578,6.45-55.195,56.271-34.459,87.897
					c11.161,17.022,26.545,31.535,43.133,44.383c13.891,10.76,49.369,33.184,49.467,33.094c0.109,0.077,32.344-26.802,44.705-39.288
					c14.762-14.911,28.112-31.314,36.947-49.651C795.025,824.175,772.391,776.469,728.344,775.783z"/>
			</g>
			<g style="opacity:0.12;">
				<path d="M769.555,862.365c-10.052,13.906-21.882,27.118-34.909,38.651c-12.598,11.153-27.563,21.132-44.485,25.25
					c-8.128,1.978-16.193,2.309-23.928,1.058c14.683,9.863,30.597,19.888,30.662,19.828c0.109,0.077,32.344-26.802,44.705-39.288
					c14.762-14.911,28.112-31.314,36.947-49.651c2.859-5.933,4.53-12.28,5.113-18.72
					C779.62,847.446,774.824,855.076,769.555,862.365z"/>
			</g>
		</g>
		<g>
			<g>
				<path style="fill:#FFFFFF;" d="M425.962,709.579c-17.717-0.276-39.273,10.586-43.575,25.977
					c-6.281-14.695-33.927-22.174-51.456-19.579c-46.257,6.846-58.588,59.731-36.577,93.301
					c11.847,18.068,28.177,33.473,45.784,47.112c14.745,11.421,52.404,35.224,52.507,35.128
					c0.116,0.082,34.332-28.449,47.454-41.703c15.669-15.828,29.84-33.239,39.219-52.703
					C496.742,760.946,472.717,710.307,425.962,709.579z"/>
			</g>
			<g style="opacity:0.12;">
				<path d="M469.707,801.484c-10.67,14.761-23.227,28.785-37.055,41.027c-13.372,11.839-29.257,22.431-47.219,26.802
					c-8.628,2.1-17.188,2.45-25.399,1.123c15.586,10.47,32.478,21.111,32.547,21.047c0.115,0.082,34.332-28.45,47.453-41.703
					c15.669-15.828,29.84-33.239,39.218-52.703c3.035-6.298,4.808-13.035,5.428-19.871
					C480.39,785.647,475.3,793.746,469.707,801.484z"/>
			</g>
		</g>
		<g>
			<g>
				<path style="fill:#FFFFFF;" d="M285.567,844.068c-13.647,1.058-29.447,10.96-31.652,23.109
					c-5.885-10.855-27.685-14.627-40.981-11.374c-35.087,8.584-40.778,50.153-21.44,74.402
					c10.408,13.051,24.073,23.732,38.594,32.962c12.16,7.729,42.833,23.342,42.906,23.261c0.095,0.055,24.365-24.349,33.507-35.486
					c10.917-13.3,20.567-27.711,26.384-43.358C343.692,878.512,321.581,841.276,285.567,844.068z"/>
			</g>
			<g style="opacity:0.12;">
				<path d="M325.983,911.579c-7.147,12.121-15.8,23.81-25.557,34.22c-9.436,10.067-20.894,19.354-34.396,24.005
					c-6.486,2.234-13.044,3.117-19.455,2.685c12.739,6.937,26.494,13.913,26.543,13.858c0.095,0.055,24.365-24.349,33.507-35.486
					c10.917-13.3,20.567-27.711,26.384-43.358c1.882-5.063,2.763-10.373,2.749-15.677
					C333.064,898.629,329.729,905.225,325.983,911.579z"/>
			</g>
		</g>
		<g>
			<g>
				<path style="fill:#FFFFFF;" d="M163.327,759.252c-16.513-3.838-38.867,1.968-46,15.496
					c-2.905-15.015-27.247-27.596-44.164-28.711c-44.642-2.941-66.859,44.037-53.058,79.887
					c7.428,19.295,19.587,37.004,33.298,53.319c11.481,13.662,41.89,43.537,42.006,43.468c0.091,0.1,37.855-19.676,52.804-29.424
					c17.852-11.64,34.622-25.064,47.325-41.377C219.141,821.603,206.905,769.379,163.327,759.252z"/>
			</g>
			<g style="opacity:0.12;">
				<path d="M186.727,854.074c-12.961,11.652-27.537,22.234-42.943,30.891c-14.898,8.372-31.893,15.072-49.574,15.532
					c-8.493,0.221-16.569-1.18-23.98-4.081c12.46,12.942,26.107,26.309,26.185,26.263c0.091,0.1,37.855-19.676,52.804-29.424
					c17.852-11.64,34.622-25.064,47.325-41.377c4.11-5.278,7.13-11.222,9.091-17.491
					C199.918,841.418,193.521,847.966,186.727,854.074z"/>
			</g>
		</g>
		<g>
			<g>
				<path style="fill:#FFFFFF;" d="M558.471,834.48c-12.049-3.57-28.846-0.262-34.722,9.432
					c-1.486-11.239-18.941-21.624-31.409-23.197c-32.902-4.15-51.419,29.628-42.792,56.765
					c4.643,14.605,12.857,28.247,22.281,40.925c7.891,10.617,29.071,34.067,29.16,34.021c0.063,0.078,28.88-12.885,40.373-19.437
					c13.724-7.823,26.727-17.015,36.847-28.524C597.012,883.083,590.267,843.9,558.471,834.48z"/>
			</g>
			<g style="opacity:0.12;">
				<path d="M570.899,905.635c-10.105,8.049-21.359,15.234-33.141,20.959c-11.393,5.536-24.265,9.742-37.368,9.301
					c-6.294-0.212-12.208-1.606-17.563-4.08c8.648,10.127,18.155,20.622,18.214,20.591c0.063,0.078,28.88-12.885,40.372-19.437
					c13.724-7.823,26.727-17.015,36.847-28.524c3.275-3.724,5.772-7.988,7.5-12.541
					C581.219,896.854,576.196,901.416,570.899,905.635z"/>
			</g>
		</g>
		<g>
			<path style="fill:#673B1C;" d="M131.336,1080.087c-1.193-10.494-18.147-143.112-16.222-147.102
				c2.64-5.472,12.799-16.36,13.165-17.11l-2.097-9.159l-29.984,15.929c0,0-13.327-14.331-13.183-13.955l-0.165-0.061l16.706-8.179
				l-6.253-6.596l-23.327,6.347l-1.759,9.947c0,0,3.23,13.138,3.23,13.138c2.958,4.274,5.916,8.548,8.873,12.822
				c1.654,2.39,3.924,4.521,4.997,7.22c1.636,4.117-5.882,126.25-6.017,148.446C79.3,1091.783,131.336,1080.087,131.336,1080.087z"
				/>
			<polygon style="fill:#CEAEA1;" points="157.53,1200 66.261,1200 77.969,989.467 128.736,1005.141 			"/>
		</g>
		<g>
			<polygon style="fill:#8C6246;" points="308.588,971.018 306.905,959.019 280.76,952.461 279.353,961.136 290.41,969.496 
				281.04,984.488 252.461,969.496 246.378,978.392 257.363,1003.849 257.382,1016.638 290.371,1020.451 290.675,1004.588 
				310.035,981.338 			"/>
		</g>
		<polygon style="fill:#C9B9AD;" points="299.299,1200 293.667,1023.205 240.698,1016.243 213.383,1200 		"/>
		<g>
			<path style="fill:#A87356;" d="M411.033,1057.106l-13.601-119.76l14.703-37.818c-2.061-7.494-3.684-15.11-6.046-22.52
				c-0.832-2.61-1.051-3.353-3.482-4.129c-1.524-0.486-3.045-0.984-4.568-1.476c-7.992-2.583-15.984-5.165-23.975-7.748
				c-0.294-0.095-4.953-1.773-5.036-1.627c-2.058,3.637-4.57,7.236-6.276,11.007c-1.766,3.903-3.312,7.915-4.94,11.877
				c-0.882,2.181-1.445,3.407-1.139,5.59c0.32,2.286,4.979,25.535,5.796,30.325l9.735,13.343l-5.209,119.658L411.033,1057.106z"/>
			<path style="fill:#504E51;" d="M370.253,936.038c0,0,16.311,7.604,28.913,2.477l0.581,4.799c0,0-13.086,8.812-30.612,0.557
				L370.253,936.038z"/>
		</g>
		<path style="fill:#997F67;" d="M349.075,1200h84.816l-18.173-181.779c0,0-25.768-13.587-53.083-25.627L349.075,1200z"/>
		<path style="fill:#CE9376;" d="M541.032,931.243c-0.26-1.216-0.864-2.265-2.137-2.918c-1.098-0.564-3.597-1.451-4.83-1.528
			c-2.538-0.158-3.677,1.999-6.071,2.833c-2.193,0.764-2.108-0.587-3.876-1.708c-3.166-2.007-6.292-1.082-8.427,1.943
			c0,0-6.361-4.916-11.268,2.04c0,0-5.008-3.839-8.731,2.865c-1.671,3.009-0.039,10.599,0.394,13.884
			c1.079,8.199,2.99,16.671,5.725,24.486c0.544,1.555,3.389,5.175,3.313,6.698c-0.391,7.846-0.782,15.693-1.173,23.539
			c-0.191,3.834-1.175,8.494-0.613,12.3c0.281,1.905-0.258,1.5,1.937,2.693c3.996,2.172,9.114,3.042,13.603,3.216
			c3.934,0.153,7.895-0.329,11.667-1.465c2.008-0.605,4.219-1.662,4.733-3.695c0.256-1.011,0.028-2.072-0.125-3.103
			c-1.416-9.532-4.148-18.696-6.206-28.261l11.144-16.386c0-0.014,0.001-0.028,0.001-0.042c0.179-6.333,0.358-12.665,0.537-18.998
			c0.118-4.168,0.236-8.337,0.353-12.505C541.034,935.309,541.426,933.084,541.032,931.243z"/>
		<polygon style="fill:#CEAEA1;" points="560.787,1112.634 534.719,1000.743 539.556,1000.43 539.556,992.576 492.436,992.576 
			495.223,1003.299 499.121,1003.046 483.347,1120.932 505.487,1200 602.288,1200 		"/>
		<g>
			<path style="fill:#F7B99A;" d="M698.121,968.127l10.744-18.149l4.019-7.042l-6.023-24.001l-5.391,2.701l-0.016-0.133
				l-8.695-1.134l-4.918,8.849l-3.503-4.411l-8.449,0.98l-1.506,4.545l-2.519-6.438l-6.377,3.454l3.781,8.887l-0.334,0.107
				l-2.608,23.128l1.395,6.71l6.421,10.396l-6.495,105.705l34.828-7.804L696.35,973.41L698.121,968.127z"/>
			<polygon style="fill:#997F67;" points="737.321,1200 650.41,1200 657.507,1000.756 713.4,1003.676 			"/>
		</g>
	</g>
</g>
</svg>
